<?xml version="1.0" encoding="UTF-8"?>
<!DOCTYPE svg PUBLIC "-//W3C//DTD SVG 1.1//EN" "http://www.w3.org/Graphics/SVG/1.1/DTD/svg11.dtd">
<svg xmlns="http://www.w3.org/2000/svg" version="1.1" width="5000px" height="5000px" style="shape-rendering:geometricPrecision; text-rendering:geometricPrecision; image-rendering:optimizeQuality; fill-rule:evenodd; clip-rule:evenodd" xmlns:xlink="http://www.w3.org/1999/xlink">
<g><path style="opacity:0.993" fill="#fefffe" d="M 1710.5,2054.5 C 1712.83,2054.5 1715.17,2054.5 1717.5,2054.5C 1717.88,2126.84 1717.38,2199.18 1716,2271.5C 1715.03,2302.79 1712.03,2333.79 1707,2364.5C 1741.26,2313.93 1789.1,2285.76 1850.5,2280C 1891.8,2275.59 1932.14,2279.93 1971.5,2293C 2009.26,2308.3 2036.1,2334.8 2052,2372.5C 2064.37,2404.33 2071.37,2437.33 2073,2471.5C 2073.96,2589.85 2074.96,2708.18 2076,2826.5C 2079.01,2855.52 2090.84,2880.19 2111.5,2900.5C 2106.57,2907.14 2100.57,2912.64 2093.5,2917C 2062.09,2933.28 2028.75,2939.28 1993.5,2935C 1926.67,2926.17 1891.84,2888 1889,2820.5C 1888.67,2708.83 1888.33,2597.17 1888,2485.5C 1887.2,2466.64 1884.87,2447.97 1881,2429.5C 1878.59,2414.69 1872.92,2401.35 1864,2389.5C 1853.75,2379.79 1841.58,2373.96 1827.5,2372C 1803.42,2368.48 1781.42,2373.48 1761.5,2387C 1750.48,2396.87 1742.32,2408.7 1737,2422.5C 1724.9,2461.22 1718.56,2500.89 1718,2541.5C 1717.5,2667.17 1717.33,2792.83 1717.5,2918.5C 1655.83,2918.5 1594.17,2918.5 1532.5,2918.5C 1532.5,2636.83 1532.5,2355.17 1532.5,2073.5C 1592.02,2067.59 1651.35,2061.26 1710.5,2054.5 Z"/></g>
<g><path style="opacity:0.991" fill="#fefffe" d="M 1040.5,2097.5 C 1097.17,2095.52 1152.17,2104.02 1205.5,2123C 1280.28,2150.71 1312.45,2204.21 1302,2283.5C 1291.36,2328.14 1263.52,2355.31 1218.5,2365C 1191.35,2370.17 1164.35,2369.5 1137.5,2363C 1130.82,2361.16 1124.49,2358.49 1118.5,2355C 1127.68,2320.57 1129.52,2285.74 1124,2250.5C 1120.01,2228.67 1109.51,2210.84 1092.5,2197C 1071.74,2185.04 1049.4,2180.7 1025.5,2184C 978.441,2191.24 954.441,2218.74 953.5,2266.5C 953.887,2296.25 963.053,2322.92 981,2346.5C 994.539,2364.37 1010.37,2379.87 1028.5,2393C 1067.33,2418.92 1106.99,2443.59 1147.5,2467C 1180.74,2487.12 1212.41,2509.45 1242.5,2534C 1308.97,2596.1 1332.47,2671.94 1313,2761.5C 1300.06,2821.25 1267.22,2866.42 1214.5,2897C 1160.08,2926.91 1101.74,2942.58 1039.5,2944C 985.554,2946.97 932.554,2941.3 880.5,2927C 850.013,2918.09 822.013,2904.42 796.5,2886C 768.764,2862.23 753.264,2832.06 750,2795.5C 745.133,2761.14 752.466,2729.81 772,2701.5C 798.063,2670.9 831.396,2655.9 872,2656.5C 893.56,2656.04 914.06,2660.38 933.5,2669.5C 933.833,2670 934.167,2670.5 934.5,2671C 923.934,2709.66 923.101,2748.5 932,2787.5C 945.737,2836.2 978.071,2860.2 1029,2859.5C 1064.87,2860.05 1094.54,2847.05 1118,2820.5C 1134.04,2797.31 1140.04,2771.65 1136,2743.5C 1133.19,2719.72 1124.52,2698.39 1110,2679.5C 1098.2,2664.04 1084.7,2650.2 1069.5,2638C 1027.51,2608.36 984.173,2580.69 939.5,2555C 909.728,2536.56 881.062,2516.56 853.5,2495C 826.694,2470.86 805.194,2442.7 789,2410.5C 769.349,2360.41 766.682,2309.41 781,2257.5C 794.059,2218.11 816.893,2185.61 849.5,2160C 889.139,2130.69 933.473,2112.03 982.5,2104C 1001.86,2100.71 1021.2,2098.55 1040.5,2097.5 Z"/></g>
<g><path style="opacity:0.991" fill="#fefffe" d="M 2558.5,2278.5 C 2610.08,2275.89 2660.08,2283.39 2708.5,2301C 2768.25,2326.41 2811.08,2368.91 2837,2428.5C 2857.54,2477.73 2868.21,2529.06 2869,2582.5C 2872.1,2647.71 2862.77,2711.05 2841,2772.5C 2792.95,2889.42 2705.28,2946.75 2578,2944.5C 2435.13,2944.78 2343.13,2876.78 2302,2740.5C 2286.36,2677.26 2282.36,2613.26 2290,2548.5C 2295.82,2488.37 2315.48,2433.37 2349,2383.5C 2392.57,2324.61 2451.07,2290.77 2524.5,2282C 2535.97,2280.63 2547.3,2279.47 2558.5,2278.5 Z M 2572.5,2351.5 C 2609.99,2350.83 2635.82,2367.83 2650,2402.5C 2659.32,2428.78 2665.65,2455.78 2669,2483.5C 2678.65,2566.79 2678.98,2650.12 2670,2733.5C 2667.02,2761.73 2661.35,2789.4 2653,2816.5C 2634.76,2861.2 2601.93,2878.37 2554.5,2868C 2530.48,2859.64 2513.98,2843.48 2505,2819.5C 2493.51,2782.36 2486.51,2744.36 2484,2705.5C 2479.77,2646.86 2479.44,2588.19 2483,2529.5C 2485.54,2492.26 2491.54,2455.59 2501,2419.5C 2506.37,2398.25 2517.2,2380.42 2533.5,2366C 2545.31,2357.68 2558.31,2352.85 2572.5,2351.5 Z"/></g>
<g><path style="opacity:0.991" fill="#fefffe" d="M 3342.5,2278.5 C 3390.29,2275.76 3436.63,2282.6 3481.5,2299C 3560.77,2330.99 3596.6,2389.82 3589,2475.5C 3584.63,2546.51 3549.13,2594.01 3482.5,2618C 3449.13,2629.93 3414.79,2637.59 3379.5,2641C 3333.84,2645.41 3288.17,2645.58 3242.5,2641.5C 3243.75,2679.34 3250.92,2716.01 3264,2751.5C 3283.91,2801.32 3320.91,2825.65 3375,2824.5C 3446.76,2822.6 3500.43,2790.94 3536,2729.5C 3550.36,2736.54 3559.69,2747.87 3564,2763.5C 3571.83,2802.49 3563.5,2837.49 3539,2868.5C 3510.05,2899.73 3474.89,2920.9 3433.5,2932C 3365.81,2949.65 3298.48,2948.32 3231.5,2928C 3174.06,2907.89 3129.9,2871.72 3099,2819.5C 3068.81,2763.74 3053.14,2704.08 3052,2640.5C 3048.44,2580 3056.1,2521 3075,2463.5C 3113.03,2362.16 3185.53,2302.32 3292.5,2284C 3309.25,2281.56 3325.92,2279.73 3342.5,2278.5 Z M 3337.5,2350.5 C 3371.45,2348.55 3394.95,2363.22 3408,2394.5C 3424.61,2437.52 3424.61,2480.52 3408,2523.5C 3395.68,2547.81 3376.51,2564.31 3350.5,2573C 3335.56,2578.12 3320.23,2581.45 3304.5,2583C 3283.86,2584.32 3263.19,2584.82 3242.5,2584.5C 3243.17,2542.42 3247.67,2500.75 3256,2459.5C 3259.99,2441.86 3264.99,2424.53 3271,2407.5C 3279.34,2385.28 3293.84,2368.44 3314.5,2357C 3322.07,2354.03 3329.74,2351.86 3337.5,2350.5 Z"/></g>
<g><path style="opacity:0.99" fill="#fefffe" d="M 4009.5,2278.5 C 4063.98,2275.78 4116.98,2283.28 4168.5,2301C 4192.16,2309.03 4212.33,2322.2 4229,2340.5C 4247.44,2366.86 4253.11,2395.86 4246,2427.5C 4239.88,2448.95 4227.05,2465.12 4207.5,2476C 4177.94,2491.15 4146.61,2496.82 4113.5,2493C 4100.58,2492.56 4088.41,2489.4 4077,2483.5C 4078.76,2473.26 4080.43,2462.92 4082,2452.5C 4084.8,2431.61 4083.8,2410.95 4079,2390.5C 4067.51,2358.49 4044.67,2343.66 4010.5,2346C 3971.3,2350.54 3950.63,2372.54 3948.5,2412C 3949.19,2443.04 3961.19,2468.71 3984.5,2489C 4001,2502.5 4018.33,2514.83 4036.5,2526C 4061.34,2540.25 4086.34,2554.25 4111.5,2568C 4138.53,2583.51 4164.53,2600.51 4189.5,2619C 4210.61,2637.43 4227.11,2659.26 4239,2684.5C 4244.06,2697.74 4247.39,2711.4 4249,2725.5C 4253.38,2767.57 4245.72,2807.24 4226,2844.5C 4207.09,2874.41 4181.59,2896.91 4149.5,2912C 4098.72,2935.06 4045.39,2945.89 3989.5,2944.5C 3936.76,2945.47 3885.76,2936.63 3836.5,2918C 3777.02,2893.89 3752.85,2850.05 3764,2786.5C 3769.36,2764.81 3781.86,2748.64 3801.5,2738C 3824.96,2725.72 3849.96,2719.89 3876.5,2720.5C 3891.09,2720.41 3905.42,2722.24 3919.5,2726C 3924.65,2727.74 3929.31,2730.24 3933.5,2733.5C 3926.15,2760.13 3924.31,2787.13 3928,2814.5C 3938.86,2862.88 3969.02,2883.38 4018.5,2876C 4053.27,2868.89 4073.44,2847.72 4079,2812.5C 4084.74,2774.05 4073.24,2741.88 4044.5,2716C 4023.21,2698.38 4000.54,2682.72 3976.5,2669C 3943.01,2651.09 3910.01,2632.43 3877.5,2613C 3845.14,2594.31 3818.98,2569.14 3799,2537.5C 3781.01,2503.92 3775.01,2468.25 3781,2430.5C 3787.02,2385.6 3808.85,2350.77 3846.5,2326C 3883.08,2303.36 3922.74,2289.03 3965.5,2283C 3980.28,2281.1 3994.95,2279.6 4009.5,2278.5 Z"/></g>
</svg>
